<svg width="17" height="13" viewBox="0 0 17 13" fill="none" xmlns="http://www.w3.org/2000/svg">
<path d="M0.707764 12.6086V0.608643H1.27026V12.6086H0.707764ZM1.54704 12.6001V0.608643H1.83276V12.6001H1.54704ZM2.39526 12.6001V0.608643H2.67204V12.6001H2.39526ZM3.79704 12.6001V0.608643H4.07383V12.6001H3.79704ZM4.92204 12.6001V0.608643H5.47561V12.6001H4.92204ZM6.32383 12.6001V0.608643H6.60061V12.6001H6.32383ZM6.88633 12.6001V0.608643H7.16311V12.6001H6.88633ZM7.44883 12.6001V0.608643H7.72561V12.6001H7.44883ZM8.56492 12.6001V0.608643H9.12742V12.6001H8.56492ZM9.9667 12.6001V0.608643H10.5292V12.6001H9.9667ZM11.0917 12.6001V0.608643H11.6542V12.6001H11.0917ZM12.2167 12.6001V0.608643H12.7792V12.6001H12.2167ZM13.056 12.6001V0.608643H13.6185V12.6001H13.056ZM14.4667 12.6001V0.608643H15.306V12.6001H14.4667ZM15.5828 12.6001V0.608643H15.8685V12.6001H15.5828ZM16.1453 12.6086V0.608643H16.7078V12.6086H16.1453Z" fill="black"/>
</svg>
