<svg width="17" height="18" viewBox="0 0 17 18" fill="none" xmlns="http://www.w3.org/2000/svg">
<path d="M16.0914 8.5008L8.9572 15.635C8.0832 16.509 6.89781 17 5.6618 17C4.42579 17 3.2404 16.509 2.3664 15.635C1.49241 14.761 1.0014 13.5756 1.0014 12.3396C1.0014 11.1036 1.49241 9.9182 2.3664 9.04421L9.50061 1.91C10.0833 1.32734 10.8735 1 11.6975 1C12.5215 1 13.3118 1.32734 13.8945 1.91C14.4771 2.49266 14.8045 3.28292 14.8045 4.10693C14.8045 4.93094 14.4771 5.7212 13.8945 6.30386L6.7525 13.4381C6.46117 13.7294 6.06604 13.8931 5.65404 13.8931C5.24203 13.8931 4.8469 13.7294 4.55557 13.4381C4.26424 13.1467 4.10057 12.7516 4.10057 12.3396C4.10057 11.9276 4.26424 11.5325 4.55557 11.2411L11.1464 4.6581" stroke="black" stroke-linecap="round" stroke-linejoin="round"/>
</svg>
